<svg width="40" height="40" viewBox="0 0 40 40" fill="none" xmlns="http://www.w3.org/2000/svg">
<circle cx="20" cy="20" r="20" fill="#677BC5"/>
<path d="M24.3525 26.3599C24.97 27.1314 25.7103 28 25.7103 28C30.2531 27.8566 32 24.9221 32 24.9221C31.9323 20.8129 30.9194 16.7741 29.0391 13.1166C27.3764 11.8414 25.3611 11.1055 23.2654 11.0084L22.9778 11.3331C26.4716 12.3872 28.0959 13.905 28.0959 13.905C26.1795 12.8658 24.0796 12.2057 21.9119 11.9613C20.5319 11.8122 19.1391 11.8264 17.7624 12.0035C17.6444 12.0074 17.5269 12.0215 17.4114 12.0456C15.804 12.224 14.2342 12.6508 12.7585 13.3105C11.9803 13.6647 11.5361 13.8966 11.5361 13.8966C11.5361 13.8966 13.2281 12.2986 16.9418 11.2445L16.7346 11C14.6389 11.0971 12.6236 11.8329 10.9609 13.1081C9.08064 16.7656 8.06767 20.8045 8 24.9137C8 24.9137 9.72577 27.8651 14.2686 27.9916C14.2686 27.9916 15.03 27.0809 15.6475 26.3051C13.0377 25.5377 12.0522 23.9187 12.0522 23.9187C12.0522 23.9187 12.2594 24.062 12.6274 24.2644C12.6505 24.2886 12.6777 24.3086 12.7078 24.3234C12.7712 24.3656 12.8305 24.3824 12.8939 24.4246C13.3782 24.6875 13.8799 24.9171 14.3955 25.1119C15.3739 25.4916 16.3847 25.7823 17.4156 25.9804C19.1743 26.306 20.978 26.306 22.7367 25.9804C23.7534 25.8034 24.7467 25.512 25.6976 25.1119C26.5281 24.8038 27.3213 24.4035 28.062 23.9187C28.062 23.9187 27.0469 25.6136 24.3525 26.3599ZM16.7388 23.5392C15.5968 23.5392 14.6577 22.4978 14.6577 21.2245C14.6226 20.9316 14.6502 20.6346 14.7386 20.353C14.827 20.0715 14.9743 19.8119 15.1708 19.5913C15.3672 19.3707 15.6083 19.1941 15.8783 19.0731C16.1482 18.9522 16.4408 18.8897 16.7367 18.8897C17.0326 18.8897 17.3252 18.9522 17.5951 19.0731C17.865 19.1941 18.1062 19.3707 18.3026 19.5913C18.4991 19.8119 18.6464 20.0715 18.7348 20.353C18.8232 20.6346 18.8508 20.9316 18.8157 21.2245C18.8322 21.5134 18.7913 21.8027 18.6954 22.0758C18.5994 22.3489 18.4503 22.6004 18.2565 22.8159C18.0627 23.0314 17.8281 23.2066 17.5662 23.3314C17.3043 23.4563 17.0203 23.5283 16.7303 23.5434L16.7388 23.5392ZM24.1791 23.5392C23.0328 23.5434 22.1107 22.5188 22.1107 21.2287C22.1548 20.828 22.3144 20.4486 22.5701 20.1364C22.8259 19.8242 23.1668 19.5924 23.5518 19.4692C23.9369 19.346 24.3494 19.3365 24.7397 19.442C25.13 19.5474 25.4813 19.7633 25.7512 20.0635C26.0211 20.3636 26.198 20.7353 26.2605 21.1335C26.3231 21.5318 26.2686 21.9395 26.1037 22.3075C25.9387 22.6756 25.6704 22.9881 25.3311 23.2074C24.9919 23.4268 24.5961 23.5434 24.1918 23.5434L24.1791 23.5392Z" fill="white"/>
</svg>
