<svg width="24" height="24" viewBox="0 0 24 24" fill="none" xmlns="http://www.w3.org/2000/svg">
<path d="M12 0L13.9899 1.99599L16.5922 0.913445L17.6668 3.51901L20.4853 3.51472L20.481 6.33318L23.0866 7.4078L22.004 10.0101L24 12L22.004 13.9899L23.0866 16.5922L20.481 17.6668L20.4853 20.4853L17.6668 20.481L16.5922 23.0866L13.9899 22.004L12 24L10.0101 22.004L7.4078 23.0866L6.33318 20.481L3.51472 20.4853L3.51901 17.6668L0.913445 16.5922L1.99599 13.9899L0 12L1.99599 10.0101L0.913445 7.4078L3.51901 6.33318L3.51472 3.51472L6.33318 3.51901L7.4078 0.913445L10.0101 1.99599L12 0Z" fill="#FA1E54"/>
<path d="M7 11.6805L10.5154 15.1959L16.14 9.57129" stroke="white" stroke-width="2" stroke-linecap="square"/>
</svg>
