<svg width="242" height="174" viewBox="0 0 242 174" fill="none" xmlns="http://www.w3.org/2000/svg">
<g opacity="0.2">
<path d="M241.676 103.686C240.398 99.9407 227.893 85.7389 214.486 71.2085C220.549 49.3931 221.132 3.04219 221.132 3.04219C221.132 3.04219 221.017 0.423523 217.52 0.760455C211.997 0.760455 190.785 8.83377 160.53 22.3837C156.393 20.3406 136.881 12.422 121.195 12.422C105.561 12.422 85.8994 20.3406 81.7624 22.3837C51.5072 8.83377 30.199 0.760455 24.6759 0.760455C21.1783 0.423523 21.0638 3.04219 21.0638 3.04219C21.0638 3.04219 21.6479 49.3926 27.7106 71.2085C14.3036 85.7384 1.80004 99.9407 0.522134 103.686L0.215729 104.584L0.6905 105.405C6.73442 115.86 22.0547 132.831 42.656 147.179C59.948 159.222 87.0246 173.578 117.82 173.578C118.076 173.578 118.341 173.577 118.596 173.575C119.481 173.567 122.811 173.567 123.695 173.575C123.95 173.577 124.166 173.578 124.422 173.578C155.218 173.578 182.271 159.222 199.563 147.179C220.164 132.831 235.472 115.86 241.516 105.405L241.985 104.584L241.676 103.686ZM216.869 6.96209C216.595 18.0046 215.452 49.4573 211.108 67.5618C198.587 54.0861 186.031 41.0575 181.703 36.5839C190.748 19.0901 207.076 11.5156 215.021 7.83028C215.703 7.5132 216.314 7.22851 216.869 6.96209ZM25.3263 6.96209C25.8806 7.22903 26.4918 7.5132 27.1742 7.82976C35.1192 11.5156 51.4466 19.0896 60.4923 36.5834C56.1634 41.0575 43.6081 54.0861 31.0874 67.5618C26.7428 49.4568 25.6003 18.0041 25.3263 6.96209ZM197.147 143.75C180.347 155.45 154.084 169.399 124.374 169.399C124.129 169.399 123.973 169.398 123.728 169.396C122.827 169.388 119.465 169.388 118.564 169.396C118.319 169.398 118.066 169.399 117.821 169.399C88.1111 169.399 61.8487 155.451 45.0481 143.75C25.5789 130.19 11.0236 114.353 4.862 104.239C9.1569 96.7041 43.1621 60.4622 64.5268 38.4274L65.5428 37.3795L64.9085 36.0657C58.2335 22.2395 47.4915 14.0319 38.7025 8.9863C47.9051 12.3347 61.7064 17.9638 80.9582 26.6039L81.8842 27.0187L82.7835 26.5496C82.9744 26.4503 104.669 16.601 121.195 16.601C137.404 16.601 159.317 26.4503 159.508 26.5496L160.359 27.0187L161.236 26.6039C180.488 17.9633 194.29 12.3347 203.492 8.9863C194.703 14.0324 183.961 22.2395 177.286 36.0657L176.652 37.3795L177.668 38.4274C199.032 60.4622 233.038 96.7046 237.333 104.239C231.171 114.353 216.616 130.19 197.147 143.75Z" fill="#010111"/>
<path d="M86.8799 64.2717C86.0632 63.4563 84.7393 63.4558 83.922 64.2717L67.7563 80.4215C66.9395 81.2374 66.9395 82.5606 67.7563 83.3766C68.5735 84.1925 69.8975 84.193 70.7142 83.3766L85.4007 68.7041L100.087 83.3766C100.495 83.7845 101.031 83.9883 101.566 83.9883C102.101 83.9883 102.636 83.784 103.045 83.3766C103.862 82.5601 103.862 81.2374 103.045 80.4215L86.8799 64.2717Z" fill="#010111"/>
<path d="M174.157 80.42L157.992 64.2702C157.174 63.4543 155.85 63.4543 155.034 64.2702L138.868 80.42C138.051 81.2359 138.051 82.5591 138.868 83.375C139.686 84.191 141.01 84.191 141.826 83.375L156.513 68.7026L171.199 83.375C171.607 83.783 172.143 83.9867 172.678 83.9867C173.213 83.9867 173.749 83.7825 174.157 83.375C174.973 82.5591 174.973 81.2364 174.157 80.42Z" fill="#010111"/>
<path d="M120.956 125.733C120.421 125.733 119.885 125.529 119.477 125.121L103.312 108.971C102.713 108.374 102.535 107.475 102.859 106.695C103.182 105.914 103.945 105.405 104.791 105.405H137.122C137.968 105.405 138.73 105.914 139.054 106.695C139.377 107.475 139.199 108.374 138.601 108.971L122.435 125.121C122.026 125.529 121.491 125.733 120.956 125.733ZM109.84 109.584L120.957 120.689L132.073 109.584H109.84V109.584Z" fill="#010111"/>
<path d="M79.1389 101.257L45.5441 95.3799C44.4074 95.1856 43.3224 95.9404 43.1232 97.0781C42.924 98.2148 43.6847 99.2972 44.8225 99.4967L78.4173 105.373C78.5391 105.394 78.6604 105.405 78.7807 105.405C79.7773 105.405 80.6604 104.691 80.8382 103.675C81.0374 102.539 80.2767 101.456 79.1389 101.257Z" fill="#010111"/>
<path d="M78.6474 112.718H48.8435C47.6884 112.718 46.752 113.653 46.752 114.807C46.752 115.961 47.6884 116.897 48.8435 116.897H78.6474C79.8025 116.897 80.7389 115.961 80.7389 114.807C80.7389 113.653 79.8025 112.718 78.6474 112.718Z" fill="#010111"/>
<path d="M78.285 123.458L52.2719 128.029C51.1341 128.229 50.3744 129.312 50.5741 130.449C50.7524 131.463 51.6351 132.177 52.6317 132.177C52.7519 132.177 52.8737 132.166 52.9966 132.145L79.0097 127.574C80.1475 127.374 80.9072 126.29 80.7075 125.154C80.5072 124.017 79.4217 123.258 78.285 123.458Z" fill="#010111"/>
<path d="M199.008 97.0781C198.809 95.9404 197.724 95.1856 196.588 95.3799L162.993 101.257C161.855 101.456 161.094 102.538 161.294 103.675C161.471 104.69 162.354 105.405 163.351 105.405C163.471 105.405 163.593 105.394 163.714 105.373L197.309 99.4967C198.446 99.2972 199.207 98.2148 199.008 97.0781Z" fill="#010111"/>
<path d="M193.288 112.718H163.484C162.329 112.718 161.392 113.653 161.392 114.807C161.392 115.961 162.329 116.897 163.484 116.897H193.288C194.443 116.897 195.379 115.961 195.379 114.807C195.379 113.653 194.443 112.718 193.288 112.718Z" fill="#010111"/>
<path d="M189.859 128.029L163.846 123.458C162.71 123.257 161.624 124.017 161.424 125.154C161.224 126.29 161.983 127.374 163.121 127.574L189.134 132.145C189.256 132.166 189.379 132.177 189.499 132.177C190.495 132.177 191.378 131.463 191.557 130.449C191.757 129.312 190.997 128.229 189.859 128.029Z" fill="#010111"/>
</g>
</svg>
