<svg width="729" height="523" viewBox="0 0 729 523" fill="none" xmlns="http://www.w3.org/2000/svg">
<path d="M727.305 311.439C723.457 300.137 685.795 257.274 645.418 213.42C663.677 147.579 665.434 7.68816 665.434 7.68816C665.434 7.68816 665.088 -0.215218 654.554 0.801674C637.92 0.801674 574.038 25.1677 482.919 66.0625C470.46 59.8965 411.696 35.9972 364.454 35.9972C317.371 35.9972 258.156 59.8965 245.697 66.0625C154.578 25.1677 90.4048 0.801674 73.7709 0.801674C63.2375 -0.215218 62.8926 7.68816 62.8926 7.68816C62.8926 7.68816 64.6516 147.578 82.9106 213.42C42.5329 257.273 4.87636 300.137 1.02771 311.439L0.104919 314.149L1.53478 316.629C19.7371 348.181 65.8768 399.401 127.921 442.705C179.999 479.053 261.545 522.381 354.292 522.381C355.062 522.381 355.859 522.377 356.627 522.371C359.292 522.349 369.321 522.349 371.984 522.371C372.753 522.377 373.403 522.381 374.175 522.381C466.922 522.381 548.395 479.053 600.475 442.705C662.519 399.401 708.621 348.181 726.823 316.629L728.234 314.149L727.305 311.439ZM652.594 19.5188C651.77 52.8461 648.328 147.773 635.243 202.414C597.535 161.743 559.721 122.422 546.687 108.92C573.928 56.1222 623.1 33.2618 647.03 22.1391C649.084 21.1821 650.923 20.3228 652.594 19.5188ZM75.7299 19.5188C77.3991 20.3244 79.2399 21.1821 81.295 22.1375C105.223 33.2618 154.396 56.1206 181.638 108.919C168.601 122.422 130.789 161.743 93.0803 202.414C79.9958 147.772 76.555 52.8445 75.7299 19.5188ZM593.198 432.358C542.602 467.67 463.506 509.768 374.03 509.768C373.293 509.768 372.822 509.765 372.085 509.759C369.372 509.736 359.245 509.736 356.531 509.759C355.793 509.765 355.031 509.768 354.294 509.768C264.817 509.768 185.723 467.672 135.126 432.358C76.4904 391.433 32.6546 343.635 14.098 313.111C27.0328 290.368 129.446 180.987 193.789 114.484L196.849 111.321L194.939 107.356C174.836 65.6274 142.484 40.8562 116.015 25.628C143.73 35.7339 185.295 52.7231 243.275 78.7997L246.064 80.0515L248.772 78.6357C249.347 78.3361 314.683 48.6098 364.454 48.6098C413.271 48.6098 479.268 78.3361 479.842 78.6357L482.404 80.0515L485.047 78.7997C543.027 52.7215 584.594 35.7339 612.307 25.628C585.838 40.8578 553.486 65.6274 533.383 107.356L531.473 111.321L534.533 114.484C598.875 180.987 701.289 290.37 714.224 313.111C695.669 343.635 651.833 391.433 593.198 432.358Z" fill="#010111" fill-opacity="0.2"/>
<path d="M261.11 192.481C258.65 190.02 254.663 190.019 252.201 192.481L203.515 241.223C201.056 243.685 201.056 247.679 203.515 250.141C205.977 252.604 209.964 252.605 212.424 250.141L256.655 205.858L300.884 250.141C302.114 251.373 303.727 251.987 305.339 251.987C306.952 251.987 308.563 251.371 309.794 250.141C312.254 247.677 312.254 243.685 309.794 241.223L261.11 192.481Z" fill="#010111" fill-opacity="0.2"/>
<path d="M523.959 241.221L475.275 192.48C472.814 190.018 468.825 190.018 466.368 192.48L417.682 241.221C415.221 243.684 415.221 247.678 417.682 250.14C420.144 252.603 424.132 252.603 426.589 250.14L470.822 205.857L515.053 250.14C516.281 251.371 517.895 251.986 519.506 251.986C521.117 251.986 522.731 251.37 523.959 250.14C526.419 247.678 526.419 243.686 523.959 241.221Z" fill="#010111" fill-opacity="0.2"/>
<path d="M363.736 377.982C362.123 377.982 360.511 377.365 359.281 376.134L310.596 327.393C308.795 325.589 308.258 322.877 309.233 320.522C310.207 318.165 312.503 316.628 315.051 316.628H412.422C414.97 316.628 417.266 318.165 418.24 320.522C419.215 322.877 418.677 325.59 416.875 327.393L368.189 376.134C366.959 377.365 365.348 377.982 363.736 377.982ZM330.258 329.24L363.737 362.757L397.216 329.24H330.258V329.24Z" fill="#010111" fill-opacity="0.2"/>
<path d="M237.796 304.108L136.619 286.372C133.196 285.785 129.928 288.063 129.328 291.497C128.728 294.928 131.02 298.195 134.446 298.797L235.623 316.533C235.99 316.596 236.355 316.629 236.717 316.629C239.719 316.629 242.378 314.473 242.914 311.408C243.514 307.979 241.223 304.71 237.796 304.108Z" fill="#010111" fill-opacity="0.2"/>
<path d="M236.316 338.7H146.556C143.077 338.7 140.257 341.523 140.257 345.006C140.257 348.488 143.077 351.312 146.556 351.312H236.316C239.794 351.312 242.615 348.488 242.615 345.006C242.615 341.523 239.794 338.7 236.316 338.7Z" fill="#010111" fill-opacity="0.2"/>
<path d="M235.225 371.114L156.882 384.909C153.455 385.513 151.167 388.783 151.768 392.213C152.305 395.273 154.964 397.429 157.965 397.429C158.327 397.429 158.694 397.395 159.064 397.331L237.407 383.536C240.834 382.932 243.122 379.662 242.52 376.232C241.917 372.802 238.648 370.51 235.225 371.114Z" fill="#010111" fill-opacity="0.2"/>
<path d="M598.803 291.497C598.203 288.063 594.937 285.785 591.514 286.372L490.337 304.108C486.911 304.71 484.618 307.977 485.22 311.408C485.755 314.471 488.413 316.629 491.416 316.629C491.777 316.629 492.144 316.596 492.509 316.533L593.685 298.797C597.111 298.195 599.403 294.928 598.803 291.497Z" fill="#010111" fill-opacity="0.2"/>
<path d="M581.576 338.7H491.816C488.337 338.7 485.517 341.523 485.517 345.006C485.517 348.488 488.337 351.312 491.816 351.312H581.576C585.055 351.312 587.875 348.488 587.875 345.006C587.875 341.523 585.055 338.7 581.576 338.7Z" fill="#010111" fill-opacity="0.2"/>
<path d="M571.25 384.909L492.907 371.114C489.484 370.509 486.215 372.801 485.612 376.232C485.009 379.663 487.297 382.932 490.723 383.536L569.066 397.331C569.435 397.396 569.805 397.429 570.165 397.429C573.165 397.429 575.823 395.275 576.362 392.214C576.965 388.783 574.677 385.513 571.25 384.909Z" fill="#010111" fill-opacity="0.2"/>
</svg>
