<svg width="40" height="40" viewBox="0 0 40 40" fill="none" xmlns="http://www.w3.org/2000/svg">
<circle cx="20" cy="20" r="20" fill="#2081E2"/>
<path d="M10.3222 20.4203L10.4 20.2981L15.0889 12.9629C15.1574 12.8555 15.3185 12.8666 15.3704 12.9833C16.1537 14.7388 16.8296 16.9222 16.513 18.2814C16.3778 18.8407 16.0074 19.5981 15.5907 20.2981C15.5371 20.3999 15.4778 20.4999 15.4148 20.5962C15.3852 20.6407 15.3352 20.6666 15.2815 20.6666H10.4593C10.3296 20.6666 10.2537 20.5259 10.3222 20.4203Z" fill="white"/>
<path d="M31.2222 21.7833V22.9444C31.2222 23.0111 31.1815 23.0704 31.1222 23.0963C30.7593 23.2518 29.5167 23.8222 29 24.5407C27.6815 26.3759 26.6741 29 24.4222 29H15.0278C11.6982 29 9 26.2926 9 22.9518V22.8444C9 22.7555 9.07221 22.6833 9.1611 22.6833H14.3982C14.5018 22.6833 14.5778 22.7796 14.5685 22.8815C14.5315 23.2222 14.5944 23.5704 14.7556 23.887C15.0667 24.5185 15.7111 24.913 16.4074 24.913H19V22.8889H16.437C16.3056 22.8889 16.2278 22.737 16.3037 22.6296C16.3315 22.587 16.363 22.5426 16.3963 22.4926C16.6389 22.1482 16.9852 21.613 17.3296 21.0037C17.5648 20.5926 17.7926 20.1537 17.9759 19.713C18.013 19.6333 18.0426 19.5518 18.0722 19.4722C18.1222 19.3315 18.1741 19.2 18.2111 19.0685C18.2482 18.9574 18.2778 18.8407 18.3074 18.7315C18.3944 18.3574 18.4315 17.9611 18.4315 17.55C18.4315 17.3889 18.4241 17.2204 18.4093 17.0593C18.4018 16.8833 18.3796 16.7074 18.3574 16.5315C18.3426 16.3759 18.3148 16.2222 18.2852 16.0611C18.2482 15.8259 18.1963 15.5926 18.137 15.3574L18.1167 15.2685C18.0722 15.1074 18.0352 14.9537 17.9833 14.7926C17.837 14.287 17.6685 13.7944 17.4907 13.3333C17.4259 13.15 17.3518 12.9741 17.2778 12.7982C17.1685 12.5333 17.0574 12.2926 16.9556 12.0648C16.9037 11.9611 16.8593 11.8667 16.8148 11.7704C16.7648 11.6611 16.713 11.5518 16.6611 11.4482C16.6241 11.3685 16.5815 11.2944 16.5518 11.2204L16.2352 10.6352C16.1907 10.5556 16.2648 10.4611 16.3518 10.4852L18.3333 11.0222H18.3389C18.3426 11.0222 18.3444 11.0241 18.3463 11.0241L18.6074 11.0963L18.8944 11.1778L19 11.2074V10.0296C19 9.4611 19.4556 9 20.0185 9C20.3 9 20.5556 9.11482 20.7389 9.30184C20.9222 9.4889 21.037 9.74445 21.037 10.0296V11.7778L21.2482 11.837C21.2648 11.8426 21.2815 11.85 21.2963 11.8611C21.3482 11.9 21.4222 11.9574 21.5167 12.0278C21.5907 12.087 21.6704 12.1593 21.7667 12.2333C21.9574 12.387 22.1852 12.5852 22.4352 12.813C22.5018 12.8704 22.5667 12.9296 22.6259 12.9889C22.9482 13.2889 23.3093 13.6407 23.6537 14.0296C23.75 14.1389 23.8444 14.25 23.9407 14.3667C24.037 14.4852 24.1389 14.6018 24.2278 14.7185C24.3444 14.8741 24.4704 15.0352 24.5796 15.2037C24.6315 15.2833 24.6907 15.3648 24.7407 15.4444C24.8815 15.6574 25.0056 15.8778 25.1241 16.0982C25.1741 16.2 25.2259 16.3111 25.2704 16.4204C25.4018 16.7148 25.5056 17.0148 25.5722 17.3148C25.5926 17.3796 25.6074 17.45 25.6148 17.513V17.5278C25.637 17.6167 25.6444 17.7111 25.6518 17.8074C25.6815 18.1148 25.6667 18.4222 25.6 18.7315C25.5722 18.863 25.5352 18.987 25.4907 19.1185C25.4463 19.2444 25.4018 19.3759 25.3444 19.5C25.2333 19.7574 25.1018 20.0148 24.9463 20.2556C24.8963 20.3444 24.837 20.4389 24.7778 20.5278C24.7129 20.6222 24.6463 20.7111 24.587 20.7982C24.5056 20.9093 24.4185 21.0259 24.3296 21.1296C24.25 21.2389 24.1685 21.3482 24.0796 21.4444C23.9556 21.5907 23.837 21.7296 23.7129 21.863C23.6389 21.95 23.5593 22.0389 23.4778 22.1185C23.3982 22.2074 23.3167 22.287 23.2426 22.3611C23.1185 22.4852 23.0148 22.5815 22.9278 22.6611L22.7241 22.8482C22.6944 22.8741 22.6556 22.8889 22.6148 22.8889H21.037V24.913H23.0222C23.4667 24.913 23.8889 24.7555 24.2296 24.4667C24.3463 24.3648 24.8556 23.9241 25.4574 23.2593C25.4778 23.237 25.5037 23.2204 25.5333 23.213L31.0167 21.6278C31.1185 21.5982 31.2222 21.6759 31.2222 21.7833Z" fill="white"/>
</svg>
