<svg width="40" height="40" viewBox="0 0 40 40" fill="none" xmlns="http://www.w3.org/2000/svg">
<circle cx="20" cy="20" r="20" fill="#31A8F1"/>
<path d="M15.9186 29C24.2205 29 28.7613 22.459 28.7613 16.7867C28.7613 16.601 28.7613 16.416 28.7481 16.2319C29.6314 15.6242 30.394 14.8719 31 14.01C30.1762 14.3571 29.3023 14.5847 28.4075 14.6853C29.3496 14.1491 30.0551 13.3049 30.3919 12.3111C29.5059 12.8111 28.5365 13.1635 27.5258 13.353C26.6723 12.49 25.4804 12 24.2347 12C21.7561 12 19.7167 13.9395 19.7167 16.2965C19.7167 16.6235 19.756 16.9494 19.8337 17.2679C16.2063 17.095 12.822 15.4634 10.5312 12.7831C9.33993 14.7334 9.95631 17.2607 11.9286 18.5132C11.2104 18.4929 10.5076 18.3086 9.88 17.9759V18.0303C9.8806 20.0658 11.4031 21.8351 13.5012 22.2381C12.8367 22.4104 12.1394 22.4356 11.4631 22.3117C12.053 24.056 13.7538 25.2583 15.6801 25.2927C14.0821 26.487 12.1069 27.1357 10.0745 27.1338C9.71534 27.1331 9.35655 27.1125 9 27.0718C11.064 28.3314 13.4662 28.9998 15.9186 28.9966" fill="white"/>
</svg>
